<svg xmlns="http://www.w3.org/2000/svg" viewBox="0 0 512 512">
  <title>V60 Brew Guide Icon</title>
  <rect width="512" height="512" fill="#3E2723"/>
  <g transform="translate(51.2, 64) scale(6.4)" fill="none">
    <path d="M45.6 16.5C54.6 17.6 61 23.5 60.1 31.2C59.2 39.1 51.8 44.1 42.6 43.1L44.8 36.5C50.3 36.4 54.1 33.4 54.5 29.6C54.8 26 51.4 23.1 46.5 22.2L45.6 16.5ZM47.5 24.5C50.5 25.1 52.4 26.9 52.2 29.1C52 31.8 49.6 34 46.3 34.1L47.4 30.9C49.4 30.7 50.5 29.9 50.6 28.8C50.7 27.8 49.7 26.9 47.9 26.3L47.5 24.5Z" fill="#EFEBE9" fill-rule="evenodd"/>
    <path d="M6.2 12.6C8.9 24.6 14.7 41.9 25.4 56C27.3 58.3 30.7 58.3 32.6 56C43.3 41.9 49.1 24.6 51.8 12.6C42.4 17.8 15.6 17.8 6.2 12.6Z" fill="#EFEBE9"/>
    <ellipse cx="29" cy="12.6" rx="23.4" ry="6.3" fill="#EFEBE9" stroke="#EFEBE9" stroke-width="2.1"/>
    <ellipse cx="29" cy="12.6" rx="17.1" ry="3.5" stroke="#3E2723" stroke-width="1.3" stroke-opacity="0.42"/>
    <path d="M13.2 17.2C16.9 29.4 21.4 43.9 27.2 55.3" stroke="#3E2723" stroke-width="1.25" stroke-linecap="round" stroke-opacity="0.34"/>
    <path d="M20.1 18.5C22.2 31.2 24.6 44.8 28.1 55.6" stroke="#3E2723" stroke-width="1.25" stroke-linecap="round" stroke-opacity="0.34"/>
    <path d="M29 19C29 32.1 29 45.4 29 56.2" stroke="#3E2723" stroke-width="1.25" stroke-linecap="round" stroke-opacity="0.32"/>
    <path d="M37.9 18.5C35.8 31.2 33.4 44.8 29.9 55.6" stroke="#3E2723" stroke-width="1.25" stroke-linecap="round" stroke-opacity="0.34"/>
    <path d="M44.8 17.2C41.1 29.4 36.6 43.9 30.8 55.3" stroke="#3E2723" stroke-width="1.25" stroke-linecap="round" stroke-opacity="0.34"/>
    <ellipse cx="29" cy="56.2" rx="2.2" ry="0.9" fill="#3E2723" fill-opacity="0.48"/>
  </g>
</svg>
